<svg viewBox="0 0 100 100" xml:space="preserve" xmlns="http://www.w3.org/2000/svg"><path d="M60.95 40.82a4.596 4.596 0 0 1-4.04 2.41 4.58 4.58 0 0 1-4.52-3.93.775.775 0 0 0-1.449-.26L45.4 49.37l-8.8-4.73a6.155 6.155 0 0 0 2.81-2.65c1.59-2.98.47-6.7-2.5-8.29-.89-.48-1.89-.73-2.9-.73-2.26 0-4.33 1.23-5.4 3.22a6.195 6.195 0 0 0-.66 3.81l-8.79-4.72 4.72-8.8a6.126 6.126 0 0 0 2.66 2.81c.89.48 1.89.73 2.89.73 2.26 0 4.33-1.24 5.4-3.23 1.6-2.97.48-6.69-2.5-8.29a6.09 6.09 0 0 0-3.81-.66l4.73-8.8 10.31 5.54c.3.16.66.11.9-.12.25-.23.31-.59.17-.9-.62-1.3-.57-2.84.11-4.11a4.56 4.56 0 0 1 4.03-2.41 4.574 4.574 0 0 1 4.03 6.74 4.622 4.622 0 0 1-3.38 2.36c-.33.05-.59.3-.65.63s.11.66.4.82l10.32 5.54-5.55 10.32a.777.777 0 0 0 1.019 1.07c.61-.29 1.29-.44 1.96-.44a4.57 4.57 0 0 1 4.38 3.25 4.605 4.605 0 0 1-.349 3.49zM85.38 78.08c0 2.52-2.05 4.57-4.57 4.57-1.449 0-2.819-.7-3.68-1.86a.787.787 0 0 0-.87-.28c-.31.11-.529.4-.529.74v11.72h-9.98a6.141 6.141 0 0 0 1.21-3.67c0-3.38-2.74-6.12-6.12-6.12s-6.13 2.74-6.13 6.12c0 1.34.44 2.62 1.22 3.67H45.95v-9.89c1.03.72 2.26 1.12 3.53 1.12h.14c3.38 0 6.12-2.75 6.12-6.12 0-3.38-2.74-6.13-6.12-6.13h-.14c-1.27 0-2.5.399-3.53 1.12v-9.89h11.71c.33 0 .63-.21.729-.529a.75.75 0 0 0-.27-.86 4.613 4.613 0 0 1-1.86-3.68 4.592 4.592 0 0 1 4.58-4.58c2.521 0 4.57 2.06 4.57 4.58 0 1.439-.69 2.81-1.851 3.68a.767.767 0 0 0 .46 1.389H75.73V74.9c0 .34.22.64.529.739.32.101.67-.01.87-.279a4.599 4.599 0 0 1 3.68-1.86 4.577 4.577 0 0 1 4.571 4.58z" fill="#3ba3d9" class="fill-000000"></path><path d="M54.06 78.08a4.58 4.58 0 0 1-4.5 4.57 4.552 4.552 0 0 1-3.74-2.03.785.785 0 0 0-.88-.311c-.32.091-.55.4-.55.74v11.92h-9.97a6.141 6.141 0 0 0 1.21-3.67 6.12 6.12 0 0 0-6.12-6.12c-3.38 0-6.13 2.74-6.13 6.12 0 1.34.44 2.62 1.22 3.67h-9.98V82.98a6.113 6.113 0 0 0 3.67 1.22c3.38 0 6.12-2.75 6.12-6.12 0-3.38-2.74-6.13-6.12-6.13a6.1 6.1 0 0 0-3.67 1.22v-9.98h11.71c.33 0 .63-.221.73-.54a.75.75 0 0 0-.27-.86 4.613 4.613 0 0 1-1.86-3.68c0-2.521 2.06-4.57 4.58-4.57s4.57 2.05 4.57 4.57c0 1.439-.69 2.819-1.85 3.68-.27.19-.38.54-.28.86.11.319.4.54.74.54h11.7v11.92c0 .34.23.64.55.739.33.101.68-.029.88-.31a4.564 4.564 0 0 1 3.73-2.04 4.592 4.592 0 0 1 4.51 4.581z" fill="#3ba3d9" class="fill-000000"></path></svg>